<svg width="71" height="70" viewBox="0 0 71 70" fill="none" xmlns="http://www.w3.org/2000/svg">
<ellipse cx="35.7628" cy="35" rx="34.8312" ry="35" fill="#5CBA99"/>
<path d="M51.9042 43V38.752C51.9042 38.416 51.8749 38.072 51.8162 37.72C51.7629 37.3627 51.6562 37.032 51.4962 36.728C51.3415 36.424 51.1202 36.1787 50.8322 35.992C50.5495 35.8053 50.1789 35.712 49.7202 35.712C49.4215 35.712 49.1389 35.7627 48.8722 35.864C48.6055 35.96 48.3709 36.1173 48.1682 36.336C47.9709 36.5547 47.8135 36.8427 47.6962 37.2C47.5842 37.5573 47.5282 37.992 47.5282 38.504L46.4882 38.112C46.4882 37.328 46.6349 36.6373 46.9282 36.04C47.2215 35.4373 47.6429 34.968 48.1922 34.632C48.7415 34.296 49.4055 34.128 50.1842 34.128C50.7815 34.128 51.2829 34.224 51.6882 34.416C52.0935 34.608 52.4215 34.8613 52.6722 35.176C52.9282 35.4853 53.1229 35.824 53.2562 36.192C53.3895 36.56 53.4802 36.92 53.5282 37.272C53.5762 37.624 53.6002 37.9333 53.6002 38.2V43H51.9042ZM45.8322 43V31.48H47.3282V37.696H47.5282V43H45.8322ZM55.684 43V34.36H57.172V36.456L56.964 36.184C57.0706 35.9067 57.2093 35.6533 57.38 35.424C57.5506 35.1893 57.748 34.9973 57.972 34.848C58.1906 34.688 58.4333 34.5653 58.7 34.48C58.972 34.3893 59.2493 34.336 59.532 34.32C59.8146 34.2987 60.0866 34.312 60.348 34.36V35.928C60.0653 35.8533 59.7506 35.832 59.404 35.864C59.0626 35.896 58.748 36.0053 58.46 36.192C58.188 36.368 57.972 36.5813 57.812 36.832C57.6573 37.0827 57.5453 37.3627 57.476 37.672C57.4066 37.976 57.372 38.2987 57.372 38.64V43H55.684Z" fill="white"/>
<path d="M15.0691 43.988L15.0811 41.756L22.6051 35.012C23.2131 34.476 23.6251 33.964 23.8411 33.476C24.0651 32.988 24.1771 32.5 24.1771 32.012C24.1771 31.396 24.0411 30.844 23.7691 30.356C23.4971 29.86 23.1211 29.468 22.6411 29.18C22.1611 28.892 21.6091 28.748 20.9851 28.748C20.3451 28.748 19.7731 28.9 19.2691 29.204C18.7731 29.5 18.3851 29.896 18.1051 30.392C17.8251 30.888 17.6891 31.424 17.6971 32H15.1291C15.1291 30.88 15.3811 29.9 15.8851 29.06C16.3971 28.212 17.0971 27.552 17.9851 27.08C18.8731 26.6 19.8891 26.36 21.0331 26.36C22.1211 26.36 23.0971 26.608 23.9611 27.104C24.8251 27.592 25.5051 28.264 26.0011 29.12C26.5051 29.976 26.7571 30.952 26.7571 32.048C26.7571 32.84 26.6531 33.512 26.4451 34.064C26.2371 34.616 25.9251 35.128 25.5091 35.6C25.0931 36.072 24.5731 36.584 23.9491 37.136L18.1411 42.32L17.8651 41.6H26.7571V43.988H15.0691ZM35.7663 44V40.988H27.9663V38.612L33.5823 26.72H36.4503L30.8343 38.612H35.7663V33.932H38.3103V38.612H40.0263V40.988H38.3103V44H35.7663Z" fill="white"/>
</svg>
